<svg width="88" height="69" viewBox="0 0 88 69" fill="none" xmlns="http://www.w3.org/2000/svg">
<path d="M6.6 0C2.95625 0 0 2.89746 0 6.46875V62.5312C0 66.1025 2.95625 69 6.6 69H19.8V58.2188C19.8 54.6475 22.7563 51.75 26.4 51.75C30.0438 51.75 33 54.6475 33 58.2188V69H46.2C49.8438 69 52.8 66.1025 52.8 62.5312V6.46875C52.8 2.89746 49.8438 0 46.2 0H6.6ZM8.8 32.3438C8.8 31.1578 9.79 30.1875 11 30.1875H15.4C16.61 30.1875 17.6 31.1578 17.6 32.3438V36.6562C17.6 37.8422 16.61 38.8125 15.4 38.8125H11C9.79 38.8125 8.8 37.8422 8.8 36.6562V32.3438ZM24.2 30.1875H28.6C29.81 30.1875 30.8 31.1578 30.8 32.3438V36.6562C30.8 37.8422 29.81 38.8125 28.6 38.8125H24.2C22.99 38.8125 22 37.8422 22 36.6562V32.3438C22 31.1578 22.99 30.1875 24.2 30.1875ZM35.2 32.3438C35.2 31.1578 36.19 30.1875 37.4 30.1875H41.8C43.01 30.1875 44 31.1578 44 32.3438V36.6562C44 37.8422 43.01 38.8125 41.8 38.8125H37.4C36.19 38.8125 35.2 37.8422 35.2 36.6562V32.3438ZM11 12.9375H15.4C16.61 12.9375 17.6 13.9078 17.6 15.0938V19.4062C17.6 20.5922 16.61 21.5625 15.4 21.5625H11C9.79 21.5625 8.8 20.5922 8.8 19.4062V15.0938C8.8 13.9078 9.79 12.9375 11 12.9375ZM22 15.0938C22 13.9078 22.99 12.9375 24.2 12.9375H28.6C29.81 12.9375 30.8 13.9078 30.8 15.0938V19.4062C30.8 20.5922 29.81 21.5625 28.6 21.5625H24.2C22.99 21.5625 22 20.5922 22 19.4062V15.0938ZM37.4 12.9375H41.8C43.01 12.9375 44 13.9078 44 15.0938V19.4062C44 20.5922 43.01 21.5625 41.8 21.5625H37.4C36.19 21.5625 35.2 20.5922 35.2 19.4062V15.0938C35.2 13.9078 36.19 12.9375 37.4 12.9375ZM61.6 0C59.1663 0 57.2 1.92715 57.2 4.3125V69H66V25.875H85.8C87.01 25.875 88 24.9047 88 23.7188V6.46875C88 5.28281 87.01 4.3125 85.8 4.3125H66C66 1.92715 64.0338 0 61.6 0Z" fill="white"/>
</svg>
