<svg width="99" height="75" viewBox="0 0 99 75" fill="none" xmlns="http://www.w3.org/2000/svg">
<path d="M54.7284 7.93037L51.0778 0.928418C50.4745 -0.287402 48.5873 -0.331348 47.9222 0.928418L44.2716 7.93037L36.1814 9.029C34.7428 9.23408 34.1241 10.9187 35.1914 11.9294L41.0695 17.3493L39.6773 24.9812C39.4608 26.3435 40.9458 27.3981 42.2761 26.7683L49.5309 23.1354L56.7394 26.7097C58.0697 27.3396 59.5702 26.2849 59.3381 24.9226L57.9459 17.2907L63.8241 11.9294C64.8759 10.9333 64.2727 9.24873 62.8341 9.029L54.7439 7.93037H54.7284ZM39.6 37.5056C36.862 37.5056 34.65 39.6003 34.65 42.1931V70.3181C34.65 72.9108 36.862 75.0056 39.6 75.0056H59.4C62.138 75.0056 64.35 72.9108 64.35 70.3181V42.1931C64.35 39.6003 62.138 37.5056 59.4 37.5056H39.6ZM4.95 46.8806C2.21203 46.8806 0 48.9753 0 51.5681V70.3181C0 72.9108 2.21203 75.0056 4.95 75.0056H24.75C27.488 75.0056 29.7 72.9108 29.7 70.3181V51.5681C29.7 48.9753 27.488 46.8806 24.75 46.8806H4.95ZM69.3 60.9431V70.3181C69.3 72.9108 71.512 75.0056 74.25 75.0056H94.05C96.788 75.0056 99 72.9108 99 70.3181V60.9431C99 58.3503 96.788 56.2556 94.05 56.2556H74.25C71.512 56.2556 69.3 58.3503 69.3 60.9431Z" fill="white"/>
</svg>
